# xmcd CD database file
#
# Track frame offsets:
#	150
#	22860
#	36602
#
# Disc length: 708 seconds
#
# Revision: 0
# Processed by: cddbd v1.5.1PL0 Copyright (c) Steve Scherf et al.
# Submitted via: CDex 1.51
#
DISCID=1d02c203
DTITLE=Lita - 悲しみのハンター
DYEAR=2001
DGENRE=JPop
TTITLE0=悲しみのハンター
TTITLE1=バニラの憂鬱
TTITLE2=デジャヴ
EXTD=YEAR: 2001
EXTT0=
EXTT1=
EXTT2=
PLAYORDER=
